# xmcd CD database file
#
# Track frame offsets:
#	150
#	21099
#	46005
#	70678
#	88243
#	117681
#	123118
#	150180
#	172822
#
# Disc length: 2374 seconds
#
# Revision: 0
# Processed by: cddbd v1.5.2PL0 Copyright (c) Steve Scherf et al.
# Submitted via: CDex 1.99.1
#
DISCID=63094409
DTITLE=Freeman, Chico (1949) - Chico Freeman 1982 - Tradition In Transition
DYEAR=1982
DGENRE=Jazz
TTITLE0=Jackie-Ing
TTITLE1=Free Association
TTITLE2=Mys-Story
TTITLE3=Talkin' Trash
TTITLE4=Each One Teach One
TTITLE5=At A Glance
TTITLE6=The Trespasser
TTITLE7=In-Spirit
TTITLE8=A Prayer
EXTD=YEAR: 1982
EXTT0=
EXTT1=
EXTT2=
EXTT3=
EXTT4=
EXTT5=
EXTT6=
EXTT7=
EXTT8=
PLAYORDER=
